<svg width="1280" height="720" xmlns="http://www.w3.org/2000/svg" xmlns:xlink="http://www.w3.org/1999/xlink" overflow="hidden"><defs><clipPath id="clip0"><rect x="0" y="0" width="1280" height="720"/></clipPath></defs><g clip-path="url(#clip0)"><rect x="0" y="0" width="1280" height="720" fill="#FFFFFF"/><rect x="47.5001" y="471.16" width="11.3401" height="197.34" fill="#4472C4"/><path d="M58.8401 471.16 173.5 356.5 173.5 553.84 58.8401 668.5Z" fill="#375C9E" fill-rule="evenodd"/><path d="M47.5001 471.16 162.16 356.5 173.5 356.5 58.8401 471.16Z" fill="#698ED0" fill-rule="evenodd"/><path d="M47.5001 471.16 162.16 356.5 173.5 356.5 173.5 553.84 58.8401 668.5 47.5001 668.5ZM47.5001 471.16 58.8401 471.16 173.5 356.5M58.8401 471.16 58.8401 668.5" stroke="#2F528F" stroke-width="1.33333" stroke-miterlimit="8" fill="none" fill-rule="evenodd"/><rect x="231.5" y="483.907" width="124.593" height="60.5934" fill="#E7E6E6"/><path d="M356.094 483.907 385.5 454.5 385.5 515.094 356.094 544.5Z" fill="#BAB9B9" fill-rule="evenodd"/><path d="M231.5 483.907 260.907 454.5 385.5 454.5 356.094 483.907Z" fill="#ECEBEB" fill-rule="evenodd"/><path d="M231.5 483.907 260.907 454.5 385.5 454.5 385.5 515.094 356.094 544.5 231.5 544.5ZM231.5 483.907 356.094 483.907 385.5 454.5M356.094 483.907 356.094 544.5" stroke="#FFFFFF" stroke-width="1.33333" stroke-miterlimit="8" fill="none" fill-rule="evenodd"/><rect x="660.5" y="411.58" width="156.92" height="59.9202" fill="#E7E6E6"/><path d="M817.42 411.58 846.5 382.5 846.5 442.42 817.42 471.5Z" fill="#BAB9B9" fill-rule="evenodd"/><path d="M660.5 411.58 689.58 382.5 846.5 382.5 817.42 411.58Z" fill="#ECEBEB" fill-rule="evenodd"/><path d="M660.5 411.58 689.58 382.5 846.5 382.5 846.5 442.42 817.42 471.5 660.5 471.5ZM660.5 411.58 817.42 411.58 846.5 382.5M817.42 411.58 817.42 471.5" stroke="#FFFFFF" stroke-width="1.33333" stroke-miterlimit="8" fill="none" fill-rule="evenodd"/><path d="M855.5 143.16 970.16 28.5001 981.5 28.5001 981.5 225.84 866.84 340.5 855.5 340.5ZM855.5 143.16 866.84 143.16 981.5 28.5001M866.84 143.16 866.84 340.5" stroke="#A5A5A5" stroke-width="1.33333" stroke-miterlimit="8" fill="none" fill-rule="evenodd"/><path d="M884.5 151.5 927.5 108.5 927.5 108.5 927.5 217.5 884.5 260.5 884.5 260.5ZM884.5 151.5 884.5 151.5 927.5 108.5M884.5 151.5 884.5 260.5" stroke="#A5A5A5" stroke-width="1.33333" stroke-miterlimit="8" fill="none" fill-rule="evenodd"/><path d="M937.5 95.5 971.5 61.5001 971.5 61.5001 971.5 97.5001 937.5 131.5 937.5 131.5ZM937.5 95.5 937.5 95.5 971.5 61.5001M937.5 95.5 937.5 131.5" stroke="#A5A5A5" stroke-width="1.33333" stroke-miterlimit="8" fill="none" fill-rule="evenodd"/><path d="M954.5 145.5 970.5 129.5 970.5 129.5 970.5 183.5 954.5 199.5 954.5 199.5ZM954.5 145.5 954.5 145.5 970.5 129.5M954.5 145.5 954.5 199.5" stroke="#A5A5A5" stroke-width="1.33333" stroke-miterlimit="8" fill="none" fill-rule="evenodd"/><rect x="660.5" y="553.907" width="126.593" height="60.5934" fill="#E7E6E6"/><path d="M787.093 553.907 816.5 524.5 816.5 585.093 787.093 614.5Z" fill="#BAB9B9" fill-rule="evenodd"/><path d="M660.5 553.907 689.907 524.5 816.5 524.5 787.093 553.907Z" fill="#ECEBEB" fill-rule="evenodd"/><path d="M660.5 553.907 689.907 524.5 816.5 524.5 816.5 585.093 787.093 614.5 660.5 614.5ZM660.5 553.907 787.093 553.907 816.5 524.5M787.093 553.907 787.093 614.5" stroke="#FFFFFF" stroke-width="1.33333" stroke-miterlimit="8" fill="none" fill-rule="evenodd"/><rect x="946.5" y="414.223" width="108.277" height="28.277" fill="#E7E6E6"/><path d="M1054.78 414.223 1068.5 400.5 1068.5 428.777 1054.78 442.5Z" fill="#BAB9B9" fill-rule="evenodd"/><path d="M946.5 414.223 960.223 400.5 1068.5 400.5 1054.78 414.223Z" fill="#ECEBEB" fill-rule="evenodd"/><path d="M946.5 414.223 960.223 400.5 1068.5 400.5 1068.5 428.777 1054.78 442.5 946.5 442.5ZM946.5 414.223 1054.78 414.223 1068.5 400.5M1054.78 414.223 1054.78 442.5" stroke="#FFFFFF" stroke-width="1.33333" stroke-miterlimit="8" fill="none" fill-rule="evenodd"/><rect x="953.5" y="563.956" width="77.5444" height="21.5443" fill="#E7E6E6"/><path d="M1031.04 563.956 1041.5 553.5 1041.5 575.044 1031.04 585.5Z" fill="#BAB9B9" fill-rule="evenodd"/><path d="M953.5 563.956 963.956 553.5 1041.5 553.5 1031.04 563.956Z" fill="#ECEBEB" fill-rule="evenodd"/><path d="M953.5 563.956 963.956 553.5 1041.5 553.5 1041.5 575.044 1031.04 585.5 953.5 585.5ZM953.5 563.956 1031.04 563.956 1041.5 553.5M1031.04 563.956 1031.04 585.5" stroke="#FFFFFF" stroke-width="1.33333" stroke-miterlimit="8" fill="none" fill-rule="evenodd"/><rect x="1122.5" y="419.365" width="102.135" height="8.1351" fill="#4472C4"/><path d="M1224.64 419.365 1228.5 415.5 1228.5 423.635 1224.64 427.5Z" fill="#375C9E" fill-rule="evenodd"/><path d="M1122.5 419.365 1126.36 415.5 1228.5 415.5 1224.64 419.365Z" fill="#698ED0" fill-rule="evenodd"/><path d="M1122.5 419.365 1126.36 415.5 1228.5 415.5 1228.5 423.635 1224.64 427.5 1122.5 427.5ZM1122.5 419.365 1224.64 419.365 1228.5 415.5M1224.64 419.365 1224.64 427.5" stroke="#2F528F" stroke-width="1.33333" stroke-miterlimit="8" fill="none" fill-rule="evenodd"/><rect x="1122.5" y="567.625" width="76.8756" height="7.87555" fill="#4472C4"/><path d="M1199.38 567.625 1203.5 563.5 1203.5 571.376 1199.38 575.5Z" fill="#375C9E" fill-rule="evenodd"/><path d="M1122.5 567.625 1126.62 563.5 1203.5 563.5 1199.38 567.625Z" fill="#698ED0" fill-rule="evenodd"/><path d="M1122.5 567.625 1126.62 563.5 1203.5 563.5 1203.5 571.376 1199.38 575.5 1122.5 575.5ZM1122.5 567.625 1199.38 567.625 1203.5 563.5M1199.38 567.625 1199.38 575.5" stroke="#2F528F" stroke-width="1.33333" stroke-miterlimit="8" fill="none" fill-rule="evenodd"/><path d="M180.5 501.167 220.132 501.167 220.132 501.833 180.5 501.833ZM218.799 497.5 226.799 501.5 218.799 505.5Z"/><path d="M855.5 427.167 930.96 427.167 930.96 427.833 855.5 427.833ZM929.627 423.5 937.627 427.5 929.627 431.5Z"/><path d="M823.5 570.167 930.982 570.167 930.982 570.833 823.5 570.833ZM929.649 566.5 937.649 570.5 929.649 574.5Z"/><path d="M1052.5 570.167 1101.33 570.167 1101.33 570.833 1052.5 570.833ZM1100 566.5 1108 570.5 1100 574.5Z"/><path d="M1074.5 421.167 1102 421.167 1102 421.833 1074.5 421.833ZM1100.67 417.5 1108.67 421.5 1100.67 425.5Z"/><path d="M874.5 334.5 874.5 427.434" stroke="#000000" stroke-width="0.666667" stroke-miterlimit="8" fill="none" fill-rule="evenodd"/><path d="M881.5 325.5 881.5 420.95" stroke="#000000" stroke-width="0.666667" stroke-miterlimit="8" fill="none" fill-rule="evenodd"/><path d="M881.5 434.5 881.5 570.313" stroke="#000000" stroke-width="0.666667" stroke-miterlimit="8" fill="none" fill-rule="evenodd"/><path d="M881.51 420.382C884.213 422.398 885.28 427.22 883.894 431.151 883.381 432.606 882.574 433.797 881.581 434.565" stroke="#000000" stroke-width="0.666667" stroke-miterlimit="8" fill="none" fill-rule="evenodd"/><rect x="437.5" y="482.907" width="124.593" height="60.5934" fill="#E7E6E6"/><path d="M562.094 482.907 591.5 453.5 591.5 514.094 562.094 543.5Z" fill="#BAB9B9" fill-rule="evenodd"/><path d="M437.5 482.907 466.907 453.5 591.5 453.5 562.094 482.907Z" fill="#ECEBEB" fill-rule="evenodd"/><path d="M437.5 482.907 466.907 453.5 591.5 453.5 591.5 514.094 562.094 543.5 437.5 543.5ZM437.5 482.907 562.094 482.907 591.5 453.5M562.094 482.907 562.094 543.5" stroke="#FFFFFF" stroke-width="1.33333" stroke-miterlimit="8" fill="none" fill-rule="evenodd"/><path d="M390.5 501.167 429.723 501.167 429.723 501.833 390.5 501.833ZM428.39 497.5 436.39 501.5 428.39 505.5Z"/><text font-family="Times New Roman,Times New Roman_MSFontService,sans-serif" font-style="italic" font-weight="400" font-size="19" transform="translate(110.567 645)">Input</text><rect x="180.5" y="404.5" width="80" height="49" stroke="#000000" stroke-linejoin="round" stroke-miterlimit="10" fill="none"/><text font-family="Times New Roman,Times New Roman_MSFontService,sans-serif" font-weight="400" font-size="16" transform="translate(183.858 424)">ResNet <tspan x="0" y="20">ConvB 1</tspan><tspan x="57.3333" y="20">-</tspan><tspan x="62.6667" y="20">4 </tspan></text><rect x="364.5" y="404.5" width="113" height="48" stroke="#000000" stroke-linejoin="round" stroke-miterlimit="10" fill="none"/><text font-family="Times New Roman,Times New Roman_MSFontService,sans-serif" font-weight="400" font-size="16" transform="translate(368.313 423)">ResNet ConvB5<tspan x="13.3333" y="20">+ </tspan>ConvNew<tspan font-size="19" x="87.7236" y="144">(1024, w, h)</tspan><tspan font-size="19" x="306.932" y="217">(</tspan><tspan font-family="Cambria Math,Cambria Math_MSFontService,sans-serif" font-size="19" x="313.098" y="217">4𝑘</tspan><tspan font-family="Cambria Math,Cambria Math_MSFontService,sans-serif" font-size="14" x="334.678" y="210">2</tspan><tspan font-family="Cambria Math,Cambria Math_MSFontService,sans-serif" font-size="19" x="347.432" y="217">×</tspan><tspan font-family="Cambria Math,Cambria Math_MSFontService,sans-serif" font-size="19" x="364.912" y="217">𝑛𝑢𝑚</tspan><tspan font-family="Cambria Math,Cambria Math_MSFontService,sans-serif" font-size="14" x="401.912" y="221">𝑅𝑒𝑔𝐶𝑙𝑠</tspan><tspan font-size="19" x="448.132" y="217">, w, h)</tspan></text><rect x="554.5" y="379.5" width="105" height="48" stroke="#000000" stroke-linejoin="round" stroke-miterlimit="10" fill="none"/><text font-family="Cambria Math,Cambria Math_MSFontService,sans-serif" font-weight="400" font-size="16" transform="translate(561.713 399)">𝑘<tspan font-size="12" x="9.61328" y="-6">2</tspan></text><path d="M621.754 386.645C623.275 387.046 624.443 387.912 625.258 389.243 626.073 390.573 626.481 392.179 626.481 394.059 626.481 395.945 626.075 397.55 625.262 398.876 624.45 400.201 623.28 401.064 621.754 401.465L621.567 400.864C622.77 400.463 623.665 399.671 624.25 398.489 624.836 397.307 625.129 395.804 625.129 393.981 625.129 392.221 624.838 390.758 624.254 389.594 623.671 388.43 622.767 387.648 621.543 387.247ZM584.959 386.645 585.17 387.247C583.952 387.648 583.049 388.43 582.463 389.594 581.877 390.758 581.584 392.221 581.584 393.981 581.584 395.804 581.877 397.307 582.463 398.489 583.049 399.671 583.944 400.463 585.147 400.864L584.959 401.465C583.433 401.064 582.264 400.201 581.452 398.876 580.639 397.55 580.233 395.945 580.233 394.059 580.233 392.179 580.64 390.573 581.455 389.243 582.271 387.912 583.439 387.046 584.959 386.645Z" fill-rule="evenodd"/><text font-family="Cambria Math,Cambria Math_MSFontService,sans-serif" font-weight="400" font-size="16" transform="translate(585.467 399)">𝑐<tspan x="11.3934" y="0">+</tspan><tspan x="26.9467" y="0">1</tspan><tspan x="45.9733" y="0">−</tspan><tspan font-family="Times New Roman,Times New Roman_MSFontService,sans-serif" x="57.9733" y="0">d </tspan><tspan font-family="Times New Roman,Times New Roman_MSFontService,sans-serif" x="-9.55334" y="19">Conv1</tspan><tspan font-family="DengXian,DengXian_MSFontService,sans-serif" x="33.1133" y="19">×</tspan><tspan font-family="Times New Roman,Times New Roman_MSFontService,sans-serif" x="43.78" y="19">1 </tspan></text><path d="M620.5 437.167 647.486 437.167 647.486 437.833 620.5 437.833ZM646.152 433.5 654.152 437.5 646.152 441.5Z"/><path d="M620.5 585.167 650.007 585.167 650.007 585.833 620.5 585.833ZM648.674 581.5 656.674 585.5 648.674 589.5Z"/><path d="M620.5 437.5 620.5 585.699" stroke="#000000" stroke-width="0.666667" stroke-miterlimit="8" fill="none" fill-rule="evenodd"/><path d="M598.5 493.5 619.941 493.5" stroke="#000000" stroke-width="0.666667" stroke-miterlimit="8" fill="none" fill-rule="evenodd"/><text font-family="Times New Roman,Times New Roman_MSFontService,sans-serif" font-weight="400" font-size="19" transform="translate(673.562 492)">(<tspan font-family="Cambria Math,Cambria Math_MSFontService,sans-serif" x="6.16663" y="0">𝑘</tspan><tspan font-family="Cambria Math,Cambria Math_MSFontService,sans-serif" font-size="14" x="17.4133" y="-7">2</tspan><tspan font-family="Cambria Math,Cambria Math_MSFontService,sans-serif" x="26.02" y="0">(</tspan><tspan font-family="Cambria Math,Cambria Math_MSFontService,sans-serif" x="33.6866" y="0">𝑐</tspan><tspan font-family="Cambria Math,Cambria Math_MSFontService,sans-serif" x="47.0933" y="0">+</tspan><tspan font-family="Cambria Math,Cambria Math_MSFontService,sans-serif" x="65.24" y="0">1</tspan><tspan font-family="Cambria Math,Cambria Math_MSFontService,sans-serif" x="75.5733" y="0">)</tspan><tspan x="83.24" y="0">, w, h)</tspan></text><path d="M525.5 238.167 840.089 238.167 840.089 238.833 525.5 238.833ZM838.755 234.5 846.755 238.5 838.755 242.5Z"/><path d="M525.5 238.5 525.5 450.188" stroke="#000000" stroke-width="0.666667" stroke-miterlimit="8" fill="none" fill-rule="evenodd"/><rect x="564.5" y="203.5" width="91" height="30" stroke="#000000" stroke-linejoin="round" stroke-miterlimit="10" fill="none"/><text font-family="Times New Roman,Times New Roman_MSFontService,sans-serif" font-weight="400" font-size="16" transform="translate(593.825 223)">RPN<tspan font-style="italic" font-size="19" x="360.843" y="68">RoIs</tspan></text><rect x="505.5" y="592.5" width="153" height="51" stroke="#000000" stroke-linejoin="round" stroke-miterlimit="10" fill="none"/><text font-family="Cambria Math,Cambria Math_MSFontService,sans-serif" font-weight="400" font-size="16" transform="translate(511.935 613)">4𝑘<tspan font-size="12" x="18.4467" y="-6">2</tspan><tspan x="29.5" y="0">×</tspan><tspan x="44.5533" y="0">𝑛𝑢𝑚</tspan><tspan font-size="12" x="76.22" y="3">𝑅𝑒𝑔𝐶𝑙𝑠</tspan><tspan x="119.18" y="0">−</tspan><tspan font-family="Times New Roman,Times New Roman_MSFontService,sans-serif" x="131.18" y="0">d </tspan><tspan font-family="Times New Roman,Times New Roman_MSFontService,sans-serif" x="38.9266" y="20">Conv1</tspan><tspan font-family="DengXian,DengXian_MSFontService,sans-serif" x="81.5933" y="20">×</tspan><tspan font-family="Times New Roman,Times New Roman_MSFontService,sans-serif" x="92.26" y="20">1 </tspan></text><rect x="888.5" y="379.5" width="53" height="29" stroke="#000000" stroke-linejoin="round" stroke-miterlimit="10" fill="none"/><text font-family="Times New Roman,Times New Roman_MSFontService,sans-serif" font-weight="400" font-size="16" transform="translate(895.345 398)">PsRoI<tspan font-size="19" x="53.4748" y="94">(</tspan><tspan font-family="Cambria Math,Cambria Math_MSFontService,sans-serif" font-size="19" x="59.6415" y="94">𝑐</tspan><tspan font-family="Cambria Math,Cambria Math_MSFontService,sans-serif" font-size="19" x="73.0481" y="94">+</tspan><tspan font-family="Cambria Math,Cambria Math_MSFontService,sans-serif" font-size="19" x="91.1948" y="94">1</tspan><tspan font-size="19" x="101.528" y="94">, </tspan><tspan font-family="Cambria Math,Cambria Math_MSFontService,sans-serif" font-size="19" x="110.861" y="94">𝑘</tspan><tspan font-size="19" x="121.741" y="94">, </tspan><tspan font-family="Cambria Math,Cambria Math_MSFontService,sans-serif" font-size="19" x="131.075" y="94">𝑘</tspan><tspan font-size="19" x="141.955" y="94">)</tspan><tspan font-size="19" x="10.4329" y="242">(</tspan><tspan font-family="Cambria Math,Cambria Math_MSFontService,sans-serif" font-size="19" x="16.5995" y="242">4</tspan><tspan font-family="Cambria Math,Cambria Math_MSFontService,sans-serif" font-size="19" x="31.0796" y="242">×</tspan><tspan font-family="Cambria Math,Cambria Math_MSFontService,sans-serif" font-size="19" x="46.4862" y="242"> </tspan><tspan font-family="Cambria Math,Cambria Math_MSFontService,sans-serif" font-size="19" x="52.7263" y="242">𝑛𝑢𝑚</tspan><tspan font-family="Cambria Math,Cambria Math_MSFontService,sans-serif" font-size="14" x="89.7263" y="246">𝑅𝑒𝑔𝐶𝑙𝑠</tspan><tspan font-size="19" x="135.946" y="242">, </tspan><tspan font-family="Cambria Math,Cambria Math_MSFontService,sans-serif" font-size="19" x="145.28" y="242">𝑘</tspan><tspan font-size="19" x="156.16" y="242">, </tspan><tspan font-family="Cambria Math,Cambria Math_MSFontService,sans-serif" font-size="19" x="165.493" y="242">𝑘</tspan><tspan font-size="19" x="176.373" y="242">)</tspan></text><rect x="889.5" y="528.5" width="53" height="29" stroke="#000000" stroke-linejoin="round" stroke-miterlimit="10" fill="none"/><text font-family="Times New Roman,Times New Roman_MSFontService,sans-serif" font-weight="400" font-size="16" transform="translate(896.119 548)">PsRoI</text><rect x="1070.5" y="379.5" width="63" height="29" stroke="#000000" stroke-linejoin="round" stroke-miterlimit="10" fill="none"/><text font-family="Times New Roman,Times New Roman_MSFontService,sans-serif" font-weight="400" font-size="16" transform="translate(1073.58 399)">AvgPool</text><rect x="1050.5" y="528.5" width="63" height="29" stroke="#000000" stroke-linejoin="round" stroke-miterlimit="10" fill="none"/><text font-family="Times New Roman,Times New Roman_MSFontService,sans-serif" font-weight="400" font-size="16" transform="translate(1053.63 548)">AvgPool<tspan font-size="19" x="77.5303" y="-58">(</tspan><tspan font-family="Cambria Math,Cambria Math_MSFontService,sans-serif" font-size="19" x="83.6969" y="-58">𝑐</tspan><tspan font-family="Cambria Math,Cambria Math_MSFontService,sans-serif" font-size="19" x="97.1036" y="-58">+</tspan><tspan font-family="Cambria Math,Cambria Math_MSFontService,sans-serif" font-size="19" x="115.25" y="-58">1</tspan><tspan font-size="19" x="125.584" y="-58">, 1, 1)</tspan><tspan font-size="19" x="35.1426" y="92">(</tspan><tspan font-family="Cambria Math,Cambria Math_MSFontService,sans-serif" font-size="19" x="42.9692" y="92">4</tspan><tspan font-family="Cambria Math,Cambria Math_MSFontService,sans-serif" font-size="19" x="57.4492" y="92">×</tspan><tspan font-family="Cambria Math,Cambria Math_MSFontService,sans-serif" font-size="19" x="74.9292" y="92">𝑛𝑢𝑚</tspan><tspan font-family="Cambria Math,Cambria Math_MSFontService,sans-serif" font-size="14" x="111.929" y="96">𝑅𝑒𝑔𝐶𝑙𝑠</tspan><tspan font-size="19" x="159.809" y="92">, 1, 1)</tspan><tspan font-style="italic" font-size="19" x="77.5303" y="-88">RoIs Score</tspan><tspan font-style="italic" font-size="19" x="71.0543" y="56">RoIs Loc</tspan></text></g></svg>